<?xml version="1.0" encoding="utf-8"?>
<!-- Generator: Adobe Illustrator 17.0.0, SVG Export Plug-In . SVG Version: 6.00 Build 0)  -->
<!DOCTYPE svg PUBLIC "-//W3C//DTD SVG 1.1//EN" "http://www.w3.org/Graphics/SVG/1.1/DTD/svg11.dtd">
<svg version="1.1" id="Layer_1" xmlns="http://www.w3.org/2000/svg" xmlns:xlink="http://www.w3.org/1999/xlink" x="0px" y="0px"
	 width="900px" height="2226.5px" viewBox="0 0 900 2226.5" enable-background="new 0 0 900 2226.5" xml:space="preserve">
<rect x="1223.42" y="-248.499" fill="#262626" width="1480" height="3296"/>
<path fill="#B1B1B1" stroke="#B1B1B1" stroke-width="8" stroke-miterlimit="10" d="M100.872,257.694
	c-1.603,0-3.215-0.307-4.751-0.949c-4.648-1.922-7.676-6.454-7.676-11.479V105.05L9.608,26.214
	c-3.554-3.554-4.615-8.898-2.693-13.542S13.37,5,18.395,5H244.37c5.029,0,9.561,3.028,11.479,7.676
	c1.926,4.644,0.862,9.992-2.693,13.546l-77.801,77.755v79.193c0,3.293-1.305,6.454-3.637,8.786l-62.055,62.092
	C107.289,256.431,104.108,257.694,100.872,257.694z M48.399,29.855l61.264,61.264c2.328,2.328,3.637,5.493,3.637,8.786V215.25
	l37.2-37.225V98.824c0-3.297,1.309-6.458,3.641-8.79l60.216-60.179C214.357,29.855,48.399,29.855,48.399,29.855z"/>
<g>
	<path fill="#B1B1B1" stroke="#B1B1B1" stroke-miterlimit="10" d="M145.664,720.19H78.458c-8.766,0-18.506-7.792-18.506-18.506
		c0-6.818,10.227-13.149,13.149-14.61l25.811-10.227c0.487,0,0.487,0,0.487,0c-3.409-3.896-11.201-14.61-11.201-24.35
		c0-16.071,11.201-29.707,24.837-29.707s25.324,13.149,25.324,29.22c0,9.74-6.818,20.941-11.688,24.837c0,0,0,0,0,0.487l0,0
		l25.324,10.227l1.461,0.974c5.844,4.383,10.714,8.279,10.714,13.149v0.974C163.196,708.502,157.839,720.19,145.664,720.19z
		 M69.692,702.171c0,4.383,4.87,8.279,8.766,8.279h67.206c5.357,0,7.792-5.844,8.279-8.279c-0.974-1.461-4.87-4.383-6.331-5.357
		l-0.974-0.974l-23.863-9.253c-7.305-2.435-6.818-9.253-6.331-12.175v-1.461l0.974-0.974c3.896-4.383,10.227-13.636,10.227-19.48
		c0-10.714-6.818-19.48-15.097-19.48s-15.097,9.253-15.097,19.967c0,6.818,7.305,16.558,10.227,19.48l0.974,1.461v1.461
		c0.487,6.331-2.435,10.227-7.792,11.688l-24.35,9.74C74.562,697.301,70.666,700.71,69.692,702.171z"/>
</g>
<circle fill="none" stroke="#B1B1B1" stroke-width="20" stroke-miterlimit="10" cx="112.061" cy="674.544" r="96.75"/>
<g>
	<g>
		<path fill="#B1B1B1" d="M775.359,164.429c-6.647,0-12.036,5.406-12.036,12.074v0.386h-94.785V24.148h46.89
			c6.647,0,12.036-5.406,12.036-12.074S722.075,0,715.428,0h-58.927c-6.647,0-12.036,5.406-12.036,12.074v176.889
			c0,6.668,5.389,12.074,12.036,12.074h118.858c6.647,0,12.036-5.406,12.036-12.074v-12.46
			C787.395,169.835,782.006,164.429,775.359,164.429z"/>
		<path fill="#B1B1B1" d="M879.007,164.405l-32.703-32.781c-4.614-4.625-12.019-4.687-16.732-0.233
			c12.515-12.684,20.261-30.117,20.261-49.333c0-38.697-31.383-70.179-69.961-70.179s-69.961,31.482-69.961,70.179
			s31.383,70.179,69.961,70.179c19.156,0,36.532-7.767,49.179-20.322c-4.437,4.734-4.375,12.162,0.238,16.787l32.703,32.781
			c2.351,2.358,5.427,3.534,8.507,3.534c3.082,0,6.165-1.179,8.513-3.54C883.711,176.762,883.708,169.119,879.007,164.405z
			 M779.873,128.09c-25.304,0-45.888-20.649-45.888-46.031c0-25.381,20.584-46.032,45.888-46.032s45.888,20.65,45.888,46.032
			S805.176,128.09,779.873,128.09z"/>
	</g>
</g>
<path fill="#B1B1B1" d="M698.416,579.487h-53.951v23.693h35.396l3.996,14.558l19.982,80.498h154.717l23.978-95.057H704.696
	L698.416,579.487z M851.991,626.873l-11.989,47.671H722.68l-11.989-47.671H851.991z"/>
<path fill="#B1B1B1" d="M870.546,745.908c0-13.131-10.562-23.693-23.693-23.693s-23.693,10.562-23.693,23.693
	s10.562,23.693,23.693,23.693S870.546,759.039,870.546,745.908z"/>
<path fill="#B1B1B1" d="M739.807,745.908c0-13.131-10.562-23.693-23.693-23.693s-23.978,10.562-23.978,23.693
	s10.562,23.693,23.693,23.693S739.807,759.039,739.807,745.908z"/>
<path fill="#B1B1B1" d="M877.071,1289.501l-44.865-44.973c-6.33-6.345-16.489-6.43-22.955-0.319
	c17.169-17.401,27.796-41.318,27.796-67.68c0-53.089-43.055-96.279-95.979-96.279s-95.979,43.19-95.979,96.279
	c0,53.089,43.055,96.279,95.979,96.279c26.28,0,50.118-10.656,67.469-27.879c-6.087,6.495-6.003,16.686,0.327,23.031l44.865,44.973
	c3.225,3.235,7.446,4.849,11.671,4.849c4.229,0,8.458-1.617,11.679-4.857C883.525,1306.454,883.521,1295.968,877.071,1289.501z
	 M741.068,1239.68c-34.714,0-62.954-28.328-62.954-63.151c0-34.821,28.24-63.151,62.954-63.151s62.954,28.33,62.954,63.151
	C804.022,1211.352,775.782,1239.68,741.068,1239.68z"/>
<path fill="#B1B1B1" d="M700.855,1563.188c-1.277-0.139-2.459,0.235-3.34,1.102l-19.766,19.778c-1.736,1.729-1.269,4.943,0.9,7.108
	l58.864,58.873l-58.864,58.866c-2.169,2.167-2.636,5.356-0.9,7.101l19.766,19.771c1.745,1.752,4.955,1.503,7.113-0.657l58.866-58.88
	l58.875,58.88c2.165,2.16,5.366,2.409,7.111,0.657l19.773-19.771c1.729-1.745,1.27-4.934-0.897-7.101l-58.866-58.866l58.866-58.873
	c2.167-2.165,2.626-5.379,0.897-7.108l-19.773-19.778c-1.745-1.729-4.946-1.269-7.111,0.891l-58.875,58.88l-58.866-58.88
	C703.546,1564.093,702.136,1563.327,700.855,1563.188z"/>
</svg>
